<?xml version="1.0" encoding="utf-8"?>
<svg id="svg2" version="1.1" width="995.48077" height="423.13705" xmlns="http://www.w3.org/2000/svg" xmlns:xlink="http://www.w3.org/1999/xlink">
  <title id="title3707">Standard Bob Logo</title>
  <defs id="defs6">
    <linearGradient id="linearGradient3207">
      <stop id="stop3215" offset="0" style="stop-opacity: 1;"/>
      <stop style="stop-opacity: 1; stop-color: rgb(21, 21, 21);" offset="0.4171" id="stop4083"/>
      <stop style="stop-opacity: 1; stop-color: rgb(68, 68, 68);" offset="0.5623" id="stop4035"/>
      <stop style="stop-opacity: 1; stop-color: rgb(255, 255, 255);" offset="1" id="stop3211"/>
    </linearGradient>
    <filter id="filter4412" color-interpolation-filters="sRGB">
      <feGaussianBlur stdDeviation="1.3978437" id="feGaussianBlur4414"/>
    </filter>
    <radialGradient id="radialGradient4416" gradientUnits="userSpaceOnUse" gradientTransform="matrix(3.030558, -0.007153, -0.002457, -1.041185, -780.313704, 330.893427)" cx="440.34738" cy="-100.70522" r="394.83749" xlink:href="#linearGradient3207"/>
    <radialGradient id="linearGradient3207-0" gradientUnits="userSpaceOnUse" cx="494.94" cy="214.459" r="492.547" xlink:href="#linearGradient3207"/>
  </defs>
  <path style="opacity:0.60515023;fill:#000000;fill-opacity:1;fill-rule:nonzero;stroke:#000000;stroke-width:1.60000002;stroke-miterlimit:4;stroke-opacity:1;stroke-dasharray:none;filter:url(#filter4412)" d="M 903.537 5.194 L 809.725 68.787 L 840.35 68.787 C 824.569 93.257 807.65 119.68 791.412 145.225 L 587.444 145.225 L 327.069 145.225 L 326.756 145.725 C 324.085 145.554 321.386 145.398 318.631 145.319 C 335.296 119.678 356.57 87.424 372.833 62.935 L 291.82 62.987 C 276.029 87.472 255.35 119.66 239.1 145.225 L 35.912 145.225 L 5.194 193.506 L 208.569 193.506 C 184.84 231.308 167.105 260.345 164.881 265.787 C 157.33 284.187 153.569 301.406 153.569 317.506 C 153.569 348.685 163.152 373.243 182.319 391.131 C 201.486 409.032 227.63 417.943 260.725 417.943 C 305.691 417.943 346.191 401.025 382.225 367.162 C 419.396 332.164 438.006 291.002 438.006 243.725 C 438.006 224.242 433.626 207.521 424.912 193.537 L 484.944 193.537 C 465.526 224.682 442.75 261.52 441.006 265.787 C 433.456 284.187 429.694 301.406 429.694 317.506 C 429.694 348.685 439.277 373.243 458.444 391.131 C 477.609 409.032 503.754 417.943 536.85 417.943 C 581.816 417.943 622.316 401.025 658.35 367.162 C 695.513 332.171 714.092 291.02 714.1 243.756 C 714.1 224.256 709.734 207.497 701.006 193.506 L 760.881 193.506 C 737.152 231.308 719.387 260.345 717.162 265.787 C 709.614 284.187 705.881 301.406 705.881 317.506 C 705.881 348.685 715.465 373.243 734.631 391.131 C 753.801 409.032 779.912 417.943 813.006 417.943 C 857.974 417.943 898.506 401.025 934.537 367.162 C 971.711 332.164 990.287 291.002 990.287 243.725 C 990.287 209.862 977.141 184.321 950.819 167.069 C 930.02 153.512 903.363 146.259 870.944 145.319 C 887.596 119.698 904.978 93.26 921.225 68.787 L 951.088 68.787 Z M 287.537 193.506 L 294.819 193.506 C 295.145 193.506 295.463 193.535 295.787 193.537 C 296.101 193.54 296.414 193.532 296.725 193.537 C 316.516 193.877 332.105 199.517 343.506 210.475 C 355.259 221.782 361.131 237.595 361.131 257.912 C 361.131 283.467 352.506 310.182 335.256 338.037 C 315.824 369.089 294.124 384.6 270.1 384.6 C 255.652 384.6 244.611 378.222 236.944 365.444 C 230.546 354.711 227.35 341.592 227.35 326.131 C 227.35 307.347 232.141 287.762 241.725 267.319 C 244.66 261.131 263.117 231.601 287.537 193.506 Z M 839.819 193.506 L 847.131 193.506 C 867.834 193.506 884.051 199.166 895.819 210.475 C 907.574 221.782 913.444 237.595 913.444 257.912 C 913.444 283.467 904.817 310.182 887.569 338.037 C 868.135 369.089 846.434 384.6 822.412 384.6 C 807.962 384.6 796.924 378.222 789.256 365.444 C 782.857 354.711 779.662 341.592 779.662 326.131 C 779.662 307.347 784.455 287.762 794.037 267.319 C 796.972 261.131 815.398 231.601 839.819 193.506 Z M 563.912 193.537 L 570.944 193.537 C 591.642 193.537 607.865 199.166 619.631 210.475 C 631.387 221.782 637.256 237.595 637.256 257.912 C 637.256 283.467 628.631 310.182 611.381 338.037 C 591.947 369.089 570.246 384.6 546.225 384.6 C 531.775 384.6 520.734 378.222 513.069 365.444 C 506.669 354.711 503.475 341.624 503.475 326.162 C 503.475 307.379 508.267 287.762 517.85 267.319 C 520.154 262.455 543.872 224.997 563.912 193.537 Z" id="path84-9-95-9-1-31-6"/>
  <path style="fill: url(#radialGradient4416); fill-opacity: 1; fill-rule: nonzero; stroke-width: 1.6; stroke-miterlimit: 4; stroke-opacity: 1; stroke-dasharray: none; stroke: url(#linearGradient3207-0);" d="M 900.737 8.084 L 806.924 71.677 L 837.549 71.677 C 821.769 96.147 804.849 122.57 788.612 148.115 L 584.643 148.115 L 324.268 148.115 L 323.955 148.615 C 321.284 148.444 318.585 148.288 315.83 148.209 C 332.496 122.569 353.77 90.314 370.032 65.826 L 289.019 65.877 C 273.228 90.362 252.549 122.55 236.299 148.115 L 33.112 148.115 L 2.393 196.396 L 205.768 196.396 C 182.039 234.198 164.304 263.235 162.08 268.677 C 154.529 287.077 150.768 304.296 150.768 320.396 C 150.768 351.575 160.352 376.134 179.518 394.021 C 198.685 411.922 224.829 420.834 257.924 420.834 C 302.89 420.834 343.39 403.915 379.424 370.052 C 416.595 335.054 435.205 293.892 435.205 246.615 C 435.205 227.132 430.825 210.411 422.112 196.427 L 482.143 196.427 C 462.725 227.572 439.949 264.41 438.205 268.677 C 430.655 287.077 426.893 304.296 426.893 320.396 C 426.893 351.575 436.477 376.134 455.643 394.021 C 474.808 411.922 500.953 420.834 534.049 420.834 C 579.015 420.834 619.515 403.915 655.549 370.052 C 692.712 335.061 711.291 293.911 711.299 246.646 C 711.299 227.146 706.934 210.387 698.205 196.396 L 758.08 196.396 C 734.351 234.198 716.586 263.235 714.362 268.677 C 706.813 287.077 703.08 304.296 703.08 320.396 C 703.08 351.575 712.664 376.134 731.83 394.021 C 751 411.922 777.112 420.834 810.205 420.834 C 855.173 420.834 895.705 403.915 931.737 370.052 C 968.91 335.054 987.487 293.892 987.487 246.615 C 987.487 212.753 974.34 187.211 948.018 169.959 C 927.219 156.402 900.563 149.149 868.143 148.209 C 884.795 122.588 902.178 96.15 918.424 71.677 L 948.287 71.677 Z M 284.737 196.396 L 292.018 196.396 C 292.344 196.396 292.663 196.425 292.987 196.427 C 293.3 196.43 293.613 196.422 293.924 196.427 C 313.716 196.767 329.304 202.407 340.705 213.365 C 352.458 224.672 358.33 240.485 358.33 260.802 C 358.33 286.357 349.705 313.072 332.455 340.927 C 313.023 371.979 291.323 387.49 267.299 387.49 C 252.852 387.49 241.81 381.112 234.143 368.334 C 227.745 357.601 224.549 344.482 224.549 329.021 C 224.549 310.237 229.34 290.652 238.924 270.209 C 241.86 264.021 260.316 234.491 284.737 196.396 Z M 837.018 196.396 L 844.33 196.396 C 865.033 196.396 881.25 202.056 893.018 213.365 C 904.773 224.672 910.643 240.485 910.643 260.802 C 910.643 286.357 902.017 313.072 884.768 340.927 C 865.334 371.979 843.633 387.49 819.612 387.49 C 805.162 387.49 794.123 381.112 786.455 368.334 C 780.057 357.601 776.862 344.482 776.862 329.021 C 776.862 310.237 781.654 290.652 791.237 270.209 C 794.172 264.021 812.597 234.491 837.018 196.396 Z M 561.112 196.427 L 568.143 196.427 C 588.842 196.427 605.064 202.056 616.83 213.365 C 628.587 224.672 634.455 240.485 634.455 260.802 C 634.455 286.357 625.83 313.072 608.58 340.927 C 589.147 371.979 567.445 387.49 543.424 387.49 C 528.974 387.49 517.933 381.112 510.268 368.334 C 503.868 357.601 500.674 344.514 500.674 329.052 C 500.674 310.269 505.467 290.652 515.049 270.209 C 517.353 265.345 541.071 227.887 561.112 196.427 Z" id="path84-9-95-9-1-31"/>
</svg>