<?xml version="1.0" encoding="utf-8"?>
<svg viewBox="2.393 8.084 985.094 412.75" xmlns="http://www.w3.org/2000/svg" xmlns:xlink="http://www.w3.org/1999/xlink">
  <defs>
    <radialGradient id="radialGradient4416" gradientUnits="userSpaceOnUse" gradientTransform="matrix(3.030558, -0.007153, -0.002457, -1.041185, -780.313704, 330.893427)" cx="440.34738" cy="-100.70522" r="394.83749" xlink:href="#linearGradient3207"/>
    <linearGradient id="linearGradient3207">
      <stop id="stop3215" offset="0" style="stop-opacity: 1;"/>
      <stop style="stop-opacity: 1; stop-color: rgb(21, 21, 21);" offset="0.4171" id="stop4083"/>
      <stop style="stop-opacity: 1; stop-color: rgb(68, 68, 68);" offset="0.5623" id="stop4035"/>
      <stop style="stop-opacity: 1; stop-color: rgb(255, 255, 255);" offset="1" id="stop3211"/>
    </linearGradient>
    <radialGradient id="gradient-0" cx="448.18771" cy="-189.20233" r="394.03751" gradientUnits="userSpaceOnUse" gradientTransform="matrix(3.03671, -0.007167, -0.002462, -1.043299, -807.050306, 238.414055)">
      <stop id="stop3215" offset="0" style="stop-color:#000000;stop-opacity:1;"/>
      <stop style="stop-color:#131a28;stop-opacity:1;" offset="0.4171" id="stop4083"/>
      <stop style="stop-color:#1a2945;stop-opacity:1;" offset="0.5623" id="stop4035"/>
      <stop style="stop-color:#1c4288;stop-opacity:1;" offset="0.5766" id="stop4017"/>
      <stop style="stop-color:#0bb5bd;stop-opacity:1;" offset="1" id="stop3211"/>
    </radialGradient>
  </defs>
  <path style="fill: url(#radialGradient4416); fill-opacity: 1; fill-rule: nonzero; stroke-width: 1.6; stroke-miterlimit: 4; stroke-opacity: 1; stroke-dasharray: none; stroke: url(#gradient-0);" d="M 900.737 8.084 L 806.924 71.677 L 837.549 71.677 C 821.769 96.147 804.849 122.57 788.612 148.115 L 584.643 148.115 L 324.268 148.115 L 323.955 148.615 C 321.284 148.444 318.585 148.288 315.83 148.209 C 332.496 122.569 353.77 90.314 370.032 65.826 L 289.019 65.877 C 273.228 90.362 252.549 122.55 236.299 148.115 L 33.112 148.115 L 2.393 196.396 L 205.768 196.396 C 182.039 234.198 164.304 263.235 162.08 268.677 C 154.529 287.077 150.768 304.296 150.768 320.396 C 150.768 351.575 160.352 376.134 179.518 394.021 C 198.685 411.922 224.829 420.834 257.924 420.834 C 302.89 420.834 343.39 403.915 379.424 370.052 C 416.595 335.054 435.205 293.892 435.205 246.615 C 435.205 227.132 430.825 210.411 422.112 196.427 L 482.143 196.427 C 462.725 227.572 439.949 264.41 438.205 268.677 C 430.655 287.077 426.893 304.296 426.893 320.396 C 426.893 351.575 436.477 376.134 455.643 394.021 C 474.808 411.922 500.953 420.834 534.049 420.834 C 579.015 420.834 619.515 403.915 655.549 370.052 C 692.712 335.061 711.291 293.911 711.299 246.646 C 711.299 227.146 706.934 210.387 698.205 196.396 L 758.08 196.396 C 734.351 234.198 716.586 263.235 714.362 268.677 C 706.813 287.077 703.08 304.296 703.08 320.396 C 703.08 351.575 712.664 376.134 731.83 394.021 C 751 411.922 777.112 420.834 810.205 420.834 C 855.173 420.834 895.705 403.915 931.737 370.052 C 968.91 335.054 987.487 293.892 987.487 246.615 C 987.487 212.753 974.34 187.211 948.018 169.959 C 927.219 156.402 900.563 149.149 868.143 148.209 C 884.795 122.588 902.178 96.15 918.424 71.677 L 948.287 71.677 Z M 284.737 196.396 L 292.018 196.396 C 292.344 196.396 292.663 196.425 292.987 196.427 C 293.3 196.43 293.613 196.422 293.924 196.427 C 313.716 196.767 329.304 202.407 340.705 213.365 C 352.458 224.672 358.33 240.485 358.33 260.802 C 358.33 286.357 349.705 313.072 332.455 340.927 C 313.023 371.979 291.323 387.49 267.299 387.49 C 252.852 387.49 241.81 381.112 234.143 368.334 C 227.745 357.601 224.549 344.482 224.549 329.021 C 224.549 310.237 229.34 290.652 238.924 270.209 C 241.86 264.021 260.316 234.491 284.737 196.396 Z M 837.018 196.396 L 844.33 196.396 C 865.033 196.396 881.25 202.056 893.018 213.365 C 904.773 224.672 910.643 240.485 910.643 260.802 C 910.643 286.357 902.017 313.072 884.768 340.927 C 865.334 371.979 843.633 387.49 819.612 387.49 C 805.162 387.49 794.123 381.112 786.455 368.334 C 780.057 357.601 776.862 344.482 776.862 329.021 C 776.862 310.237 781.654 290.652 791.237 270.209 C 794.172 264.021 812.597 234.491 837.018 196.396 Z M 561.112 196.427 L 568.143 196.427 C 588.842 196.427 605.064 202.056 616.83 213.365 C 628.587 224.672 634.455 240.485 634.455 260.802 C 634.455 286.357 625.83 313.072 608.58 340.927 C 589.147 371.979 567.445 387.49 543.424 387.49 C 528.974 387.49 517.933 381.112 510.268 368.334 C 503.868 357.601 500.674 344.514 500.674 329.052 C 500.674 310.269 505.467 290.652 515.049 270.209 C 517.353 265.345 541.071 227.887 561.112 196.427 Z" id="path84-9-95-9-1-31"/>
</svg>