<?xml version="1.0" encoding="utf-8"?>
<svg viewBox="-1 2 332.883 335" xmlns="http://www.w3.org/2000/svg" xmlns:xlink="http://www.w3.org/1999/xlink" xmlns:bx="https://boxy-svg.com">
  <defs>
    <clipPath id="clippath0" transform="">
      <path d="M 259.238 331.898 L 184.188 281.023 L 208.688 281.023 C 196.062 261.449 182.527 240.312 169.539 219.875 L 29.535 219.875 L 4.961 181.25 L 145.113 181.25 C 126.129 151.008 111.918 127.777 110.137 123.426 C 104.098 108.703 101.113 94.93 101.113 82.051 C 101.113 57.105 108.781 37.461 124.113 23.148 C 139.449 8.828 160.34 1.699 186.812 1.699 C 222.785 1.699 255.215 15.234 284.039 42.324 C 313.777 70.324 328.637 103.254 328.637 141.074 C 328.637 168.164 318.121 188.598 297.062 202.398 C 280.426 213.246 259.098 219.047 233.164 219.801 C 246.484 240.297 260.391 261.445 273.387 281.023 L 297.277 281.023 Z M 208.262 181.25 L 214.113 181.25 C 230.676 181.25 243.648 176.723 253.062 167.676 C 262.469 158.629 267.164 145.98 267.164 129.727 C 267.164 109.281 260.262 87.91 246.465 65.625 C 230.914 40.785 213.555 28.375 194.34 28.375 C 182.777 28.375 173.945 33.477 167.812 43.699 C 162.695 52.285 160.137 62.781 160.137 75.148 C 160.137 90.176 163.973 105.844 171.637 122.199 C 173.984 127.148 188.727 150.773 208.262 181.25 Z M 208.262 181.25" style="fill: none; clip-rule: nonzero;"/>
    </clipPath>
    <radialGradient id="gradient-0-0" gradientUnits="userSpaceOnUse" cx="1201.807" cy="-51.066" r="168.396" gradientTransform="matrix(-0.328551, 1.630634, -2.451782, -0.494004, 1510.859943, -2039.715388)" xlink:href="#gradient-0"/>
    <linearGradient id="gradient-0" bx:pinned="true">
      <stop style="stop-color: rgb(0, 0, 0);" offset="0"/>
      <stop style="stop-color: rgb(35, 35, 35);" offset="0.337"/>
      <stop style="stop-color: rgb(60, 60, 60);" offset="0.45"/>
      <stop style="stop-color: rgb(140, 140, 140);" offset="0.552"/>
      <stop style="stop-color: rgb(156, 156, 156);" offset="0.625"/>
      <stop style="stop-color: rgb(170, 170, 170);" offset="0.721"/>
      <stop style="stop-color: rgb(175, 175, 175);" offset="0.773"/>
      <stop style="stop-color: rgb(212, 212, 212);" offset="1"/>
    </linearGradient>
  </defs>
  <g transform="matrix(1, 0, 0, -1, 0, 336)">
    <path d="M 259.238 331.898 L 184.188 281.023 L 208.688 281.023 C 196.062 261.449 182.527 240.312 169.539 219.875 L 29.535 219.875 L 4.961 181.25 L 145.113 181.25 C 126.129 151.008 111.918 127.777 110.137 123.426 C 104.098 108.703 101.113 94.93 101.113 82.051 C 101.113 57.105 108.781 37.461 124.113 23.148 C 139.449 8.828 160.34 1.699 186.812 1.699 C 222.785 1.699 255.215 15.234 284.039 42.324 C 313.777 70.324 328.637 103.254 328.637 141.074 C 328.637 168.164 318.121 188.598 297.062 202.398 C 280.426 213.246 259.098 219.047 233.164 219.801 C 246.484 240.297 260.391 261.445 273.387 281.023 L 297.277 281.023 Z M 208.262 181.25 L 214.113 181.25 C 230.676 181.25 243.648 176.723 253.062 167.676 C 262.469 158.629 267.164 145.98 267.164 129.727 C 267.164 109.281 260.262 87.91 246.465 65.625 C 230.914 40.785 213.555 28.375 194.34 28.375 C 182.777 28.375 173.945 33.477 167.812 43.699 C 162.695 52.285 160.137 62.781 160.137 75.148 C 160.137 90.176 163.973 105.844 171.637 122.199 C 173.984 127.148 188.727 150.773 208.262 181.25 Z M 208.262 181.25" style="fill: none;"/>
  </g>
  <g style="clip-path: url(#clippath0);" transform="matrix(1, 0, 0, -1, 2.246, 334.89798)">
    <rect x="1085.425" y="-77.007" width="336.792" height="336.792" style="fill: url(#gradient-0-0);" transform="matrix(0.999997, 0.00236, -0.00236, 0.999997, -1085.602173, 73.652214)"/>
  </g>
  <g transform="matrix(1, 0, 0, -1, 0, 336)"/>
</svg>