<?xml version="1.0" encoding="utf-8"?>
<svg viewBox="-1 -1.008 92.19 118.432" xmlns="http://www.w3.org/2000/svg">
  <defs>
    <style id="style2">.cls-1{fill:red;}</style>
  </defs>
  <g>
    <path id="polygon8" d="M 0 21.6 L 11.43 21.6 L 11.43 9.8 L 38.34 9.8 L 38.34 0 L 0 0 Z" style="fill:#ff0000"/>
    <path id="polygon10" d="M 0 53 L 38.34 53 L 38.34 43.2 L 11.43 43.2 L 11.43 31.4 L 0 31.4 Z" style="fill:#ff0000"/>
    <path id="rect12" d="M 11.43 21.6 L 36.04 21.6 L 36.04 31.4 L 11.43 31.4 Z" style="fill:#ff0000"/>
  </g>
  <path style="fill:#ff0000" id="path14" d="M86,4.87a16.12,16.12,0,0,0-5.68-3.53A23.76,23.76,0,0,0,71.82,0H48.14V53H59.57V31.4H71.82a23.76,23.76,0,0,0,8.46-1.34A16.12,16.12,0,0,0,86,26.53a13.43,13.43,0,0,0,3.19-5,17.38,17.38,0,0,0,0-11.62A13.52,13.52,0,0,0,86,4.87ZM78,18.73a5.7,5.7,0,0,1-2.26,1.8,11.33,11.33,0,0,1-3.27.85,32,32,0,0,1-3.86.22H59.57V9.8h9.05a32,32,0,0,1,3.86.22,11,11,0,0,1,3.27.86A5.59,5.59,0,0,1,78,12.67a5,5,0,0,1,.86,3A5,5,0,0,1,78,18.73Z" class="cls-1"/>
  <path id="polygon16" d="M 59.57 106.624 L 59.57 63.424 L 48.14 63.424 L 48.14 116.424 L 86.48 116.424 L 86.48 106.624 Z" style="fill:#ff0000"/>
  <g transform="matrix(1, 0, 0, 1, 0, 1)">
    <path id="polygon18" d="M 0 84.024 L 11.43 84.024 L 11.43 72.224 L 38.34 72.224 L 38.34 62.424 L 0 62.424 Z" style="fill:#ff0000"/>
    <path id="rect20" d="M 0 93.824 L 11.43 93.824 L 11.43 115.424 L 0 115.424 Z" style="fill:#ff0000"/>
    <path id="rect22" d="M 11.43 84.024 L 36.04 84.024 L 36.04 93.824 L 11.43 93.824 Z" style="fill:#ff0000"/>
  </g>
</svg>